<svg xmlns="http://www.w3.org/2000/svg" viewBox="0 0 2000 571.93"><defs><style>.cls-1{fill:#60c;}.cls-2{fill:#fff;}.cls-3{fill:#ddd;}.cls-4{font-size:308.94px;font-family:CenturyGothic, Century Gothic;}.cls-5{font-size:57.93px;}.cls-6,.cls-7{font-family:CenturyGothic-Bold, Century Gothic;font-weight:700;}.cls-7{fill:none;}</style></defs><title>logo-light</title><g id="Layer_2" data-name="Layer 2"><g id="logo-light"><g id="Comet"><path class="cls-1" d="M1301.4,552.83c-1.59,0-3.19,0-4.79-.07l-3.66-.14c-32.79-1.72-66-13.69-104.4-37.68-31.13-19.45-62.69-44.85-96.11-71.73-101.34-81.55-227.45-183-430-183a684.54,684.54,0,0,0-99.18,7.52c-225.31,33.15-430.16,142-524.87,210.16C131.2,329.54,348.33,183,395.28,152.41l.34-.22.32-.24C451.44,110.22,604.2,12,823.4,1c12.86-.64,25.88-1,38.72-1C994.92,0,1125,34.06,1248.73,101.23c67.46,36.62,131.06,82.26,184,132a189.63,189.63,0,0,1,47.17,77.58,185.52,185.52,0,0,1,8.31,54.63V366C1488.17,469,1404.38,552.83,1301.4,552.83Z"/><path class="cls-2" d="M1417.79,381.23q-4.85,48.48-41.93,78.88t-85.61,25.55q-49.1-4.91-79.54-41.9T1185,359a118.12,118.12,0,0,1,21.29-57.47,114.36,114.36,0,0,1,105.29-48q50.18,5,80.62,41.87T1417.79,381.23Z"/><path class="cls-3" d="M1385.34,287.8c-33.49-3.56-69.94,4.44-105.22,35.86-54,48.07-63.09,95.16-58.72,131.57a123.23,123.23,0,0,1-10.69-11.47q-30.43-37-25.67-84.72a118.12,118.12,0,0,1,21.29-57.47,114.36,114.36,0,0,1,105.29-48Q1356.32,258.05,1385.34,287.8Z"/></g><text id="Text" class="cls-4" transform="translate(0 477.19)">CODE<tspan class="cls-5" x="915.2" y="0"> </tspan><tspan class="cls-6" x="931.24" y="0">C</tspan><tspan class="cls-7" x="1172.14" y="0">O</tspan><tspan class="cls-6" x="1431.6" y="0">MET</tspan></text></g></g></svg>